# xmcd
#
# Track frame offsets: 
#        150
#        16009
#        31441
#        41990
#        50654
#        58770
#        71379
#        88101
#        101846
#        113983
#        128063
#        149304
#        165624
#        193588
#        206838
#        218034
#        236883
#
# Disc length: 3389 seconds
#
# Revision: 0
# Processed by: cddbd v1.5.2PL0 Copyright (c) Steve Scherf et al.
# Submitted via: ExactAudioCopyFreeDBPlugin 1.0
#
DISCID=000d3b11
DTITLE=Annâweech - môr sott... cd2
DYEAR=2011
DGENRE=Blues
TTITLE0=Dâ Hit
TTITLE1=Adam eß dêin Épfl uff
TTITLE2=Ich traf einmal ein Mädchen
TTITLE3=Housâfabrik
TTITLE4=Kocherendâ
TTITLE5=Kocherqueen
TTITLE6=Anachronischd
TTITLE7=Abriß
TTITLE8=Schrauwâg´schicht
TTITLE9=Ouhêngerlesdôôch
TTITLE10=Weit fort
TTITLE11=Engscht
TTITLE12=Erbdande
TTITLE13=Bierlieâd
TTITLE14=Kiddlschärz
TTITLE15=Fuffzich Maadlich
TTITLE16=Mussich im Bluât
EXTD=
EXTT0=
EXTT1=
EXTT2=
EXTT3=
EXTT4=
EXTT5=
EXTT6=
EXTT7=
EXTT8=
EXTT9=
EXTT10=
EXTT11=
EXTT12=
EXTT13=
EXTT14=
EXTT15=
EXTT16=
PLAYORDER=
